#N canvas 663 80 617 605 10;
#X obj 130 -199 adc~;
#X obj 165 135 *~;
#X obj 165 225 dac~;
#N canvas 46 307 933 470 hukaion 1;
#X obj 147 97 mtof;
#X obj 147 134 osc~;
#X obj 147 169 hip~ 5;
#X obj 199 97 mtof;
#X obj 199 134 osc~;
#X obj 199 169 hip~ 5;
#X obj 249 99 mtof~;
#X obj 249 169 hip~ 20000;
#X obj 249 134 phasor~;
#X msg 249 54 674;
#X obj 321 96 mtof~;
#X msg 321 55 98;
#X obj 321 135 phasor~;
#X obj 321 168 hip~ 5;
#X obj 375 96 mtof~;
#X obj 375 135 phasor~;
#X obj 375 168 hip~ 5;
#X msg 375 54 101;
#X obj 429 96 mtof~;
#X obj 429 135 phasor~;
#X obj 429 168 hip~ 5;
#X msg 429 54 91;
#X msg 147 54 106;
#X msg 199 54 107;
#X obj 467 -23 inlet;
#X obj 489 98 mtof;
#X obj 489 135 osc~;
#X obj 489 170 hip~ 5;
#X obj 541 98 mtof;
#X obj 541 135 osc~;
#X obj 605 100 mtof~;
#X obj 605 170 hip~ 20000;
#X obj 605 135 phasor~;
#X msg 605 55 674;
#X obj 677 97 mtof~;
#X msg 677 56 98;
#X obj 677 136 phasor~;
#X obj 677 169 hip~ 5;
#X obj 731 97 mtof~;
#X obj 731 136 phasor~;
#X obj 731 169 hip~ 5;
#X msg 731 55 101;
#X obj 785 97 mtof~;
#X obj 785 136 phasor~;
#X obj 785 169 hip~ 5;
#X msg 785 55 91;
#X msg 489 55 106;
#X obj 465 340 outlet~;
#X obj 465 291 *~;
#X msg 541 54 300;
#X obj 541 170 hip~ 2000;
#X connect 0 0 1 0;
#X connect 1 0 2 0;
#X connect 2 0 48 0;
#X connect 3 0 4 0;
#X connect 4 0 5 0;
#X connect 5 0 48 0;
#X connect 6 0 8 0;
#X connect 7 0 48 0;
#X connect 8 0 7 0;
#X connect 9 0 6 0;
#X connect 10 0 12 0;
#X connect 11 0 10 0;
#X connect 12 0 13 0;
#X connect 13 0 48 0;
#X connect 14 0 15 0;
#X connect 15 0 16 0;
#X connect 16 0 48 0;
#X connect 17 0 14 0;
#X connect 18 0 19 0;
#X connect 19 0 20 0;
#X connect 20 0 48 0;
#X connect 21 0 18 0;
#X connect 22 0 0 0;
#X connect 23 0 3 0;
#X connect 24 0 22 0;
#X connect 24 0 23 0;
#X connect 24 0 9 0;
#X connect 24 0 11 0;
#X connect 24 0 17 0;
#X connect 24 0 21 0;
#X connect 24 0 46 0;
#X connect 24 0 49 0;
#X connect 24 0 33 0;
#X connect 24 0 35 0;
#X connect 24 0 41 0;
#X connect 24 0 45 0;
#X connect 25 0 26 0;
#X connect 26 0 27 0;
#X connect 28 0 29 0;
#X connect 29 0 50 0;
#X connect 30 0 32 0;
#X connect 31 0 48 1;
#X connect 32 0 31 0;
#X connect 33 0 30 0;
#X connect 34 0 36 0;
#X connect 35 0 34 0;
#X connect 36 0 37 0;
#X connect 38 0 39 0;
#X connect 39 0 40 0;
#X connect 40 0 48 1;
#X connect 41 0 38 0;
#X connect 42 0 43 0;
#X connect 43 0 44 0;
#X connect 45 0 42 0;
#X connect 46 0 25 0;
#X connect 48 0 47 0;
#X connect 49 0 28 0;
#X connect 50 0 48 1;
#X restore 53 39 pd hukaion;
#X obj 165 180 hip~ 5;
#X msg 322 -169 \; pd dsp \$1;
#X obj 322 -236 bng 15 250 50 0 empty empty empty 17 7 0 10 -262144
-1 -1;
#X obj 322 -204 tgl 15 0 empty empty empty 17 7 0 10 -262144 -1 -1
1 1;
#X msg 406 -169 \; pd dsp &1;
#X obj 406 -237 loadbang;
#X obj 406 -201 bng 15 250 50 0 empty empty empty 17 7 0 10 -262144
-1 -1;
#X floatatom 196 -118 5 0 0 0 - - -;
#X floatatom 197 86 5 0 1 0 - - -;
#X obj 196 -47 moses 0;
#X obj 196 -7 <= 0;
#X obj 249 223 dac~;
#X obj 159 35 == 0;
#N canvas 671 386 450 300 BGM 1;
#N canvas 402 22 878 815 melody 1;
#X obj 161 -53 inlet;
#X obj 230 413 outlet~;
#X obj 161 85 tabread iyashimelody;
#X obj 161 125 route 55;
#X obj 161 198 mtof;
#X obj 161 229 osc~;
#X obj 161 264 hip~ 5;
#X msg 161 164 0;
#X obj 400 14 loadbang;
#X obj 449 283 trigger f b;
#X obj 449 353 tabwrite iyashimelody;
#X msg 400 391 bounds 0 72 16 55;
#X obj 400 443 send iyashimelody;
#N canvas 0 22 450 300 (subpatch) 0;
#X array iyashimelody 128 float 1;
#A 0 72 72 72 72 72 72 72 72 72 72 72 72 72 72 72 72 72 72 72 72 72
72 72 72 72 72 72 72 72 72 72 72 72 72 72 72 72 72 72 72 72 72 72 72
72 72 72 72 72 72 72 72 72 72 72 72 72 72 72 72 72 72 72 72 83 83 83
83 83 83 83 83 83 83 83 83 83 83 83 83 83 83 83 83 83 83 83 83 84 84
84 84 84 84 84 84 84 84 84 84 84 84 84 84 84 84 84 84 84 84 84 84 84
84 84 84 84 84 84 84 84 84 84 84 84 84 84 84;
#X coords 0 72 16 55 128 40 1;
#X restore 302 570 graph;
#X obj 161 44 count 128;
#X obj 512 316 count 128;
#X msg 449 53 72 \, 72 \, 72 \, 72 \, 72 \, 72 \, 72 \, 72 \, 72 \,
72 \, 72 \, 72 \, 72 \, 72 \, 72 \, 72 \, 72 \, 72 \, 72 \, 72 \, 72
\, 72 \, 72 \, 72 \, 72 \, 72 \, 72 \, 72 \, 72 \, 72 \, 72 \, 72 \,
72 \, 72 \, 72 \, 72 \, 72 \, 72 \, 72 \, 72 \, 72 \, 72 \, 72 \, 72
\, 72 \, 72 \, 72 \, 72 \, 72 \, 72 \, 72 \, 72 \, 72 \, 72 \, 72 \,
72 \, 72 \, 72 \, 72 \, 72 \, 72 \, 72 \, 72 \, 72 \, 83 \, 83 \, 83
\, 83 \, 83 \, 83 \, 83 \, 83 \, 83 \, 83 \, 83 \, 83 \, 83 \, 83 \,
83 \, 83 \, 83 \, 83 \, 83 \, 83 \, 83 \, 83 \, 83 \, 83 \, 84 \, 84
\, 84 \, 84 \, 84 \, 84 \, 84 \, 84 \, 84 \, 84 \, 84 \, 84 \, 84 \,
84 \, 84 \, 84 \, 84 \, 84 \, 84 \, 84 \, 84 \, 84 \, 84 \, 84 \, 84
\, 84 \, 84 \, 84 \, 84 \, 84 \, 84 \, 84 \, 84 \, 84 \, 84 \, 84 \,
84 \, 84 \, 84 \, 84 \,;
#X obj 230 338 *~;
#X floatatom 322 49 5 0 0 0 - - -;
#X connect 0 0 14 0;
#X connect 0 0 18 0;
#X connect 2 0 3 0;
#X connect 3 0 7 0;
#X connect 3 1 4 0;
#X connect 4 0 5 0;
#X connect 5 0 6 0;
#X connect 6 0 17 0;
#X connect 7 0 4 0;
#X connect 8 0 11 0;
#X connect 8 0 16 0;
#X connect 9 0 10 0;
#X connect 9 1 15 0;
#X connect 11 0 12 0;
#X connect 14 0 2 0;
#X connect 15 0 10 1;
#X connect 16 0 9 0;
#X connect 17 0 1 0;
#X connect 18 0 17 1;
#X restore 78 157 pd melody;
#N canvas 120 22 984 814 bassmelody 1;
#X obj 188 62 inlet;
#X obj 259 495 outlet~;
#X obj 188 184 route 55;
#X obj 188 257 mtof;
#X obj 188 288 osc~;
#X obj 188 323 hip~ 5;
#X msg 188 223 0;
#X obj 412 38 loadbang;
#X obj 461 315 trigger f b;
#X msg 412 408 bounds 0 72 16 55;
#N canvas 0 22 450 300 (subpatch) 0;
#X array bass 128 float 5;
#A 0 48.01 48.01 48.01 48.01 48.01 48.01 48.01 48.01 48.01 48.01 48.01
48.01 48.01 48.01 48.01 48.01 48.01 48.01 48.01 48.01 48.01 48.01 48.01
48.01 48.01 48.01 48.01 48.01 48.01 48.01 48.01 48.01 52.01 52.01 52.01
52.01 52.01 52.01 52.01 52.01 52.01 52.01 52.01 52.01 52.01 52.01 52.01
52.01 52.01 52.01 52.01 52.01 52.01 52.01 52.01 52.01 52.01 52.01 52.01
52.01 52.01 52.01 52.01 52.01 48.01 48.01 48.01 48.01 48.01 48.01 48.01
48.01 48.01 48.01 48.01 48.01 48.01 48.01 48.01 48.01 48.01 48.01 48.01
48.01 48.01 48.01 48.01 48.01 48.01 48.01 48.01 48.01 48.01 48.01 48.01
48.01 52.01 52.01 52.01 52.01 52.01 52.01 52.01 52.01 52.01 52.01 52.01
52.01 52.01 52.01 52.01 52.01 52.01 52.01 52.01 52.01 52.01 52.01 52.01
52.01 52.01 52.01 52.01 52.01 52.01 52.01 52.01 52.01;
#X coords 0 72 16 55 128 20 1;
#X restore 586 424 graph;
#X obj 188 144 tabread bass;
#X obj 461 385 tabwrite bass;
#X obj 412 460 send bass;
#X obj 188 103 count 128;
#X obj 524 348 count 128;
#X msg 461 74 36 \, 36 \, 36 \, 36 \, 36 \, 36 \, 36 \, 36 \, 36 \,
36 \, 36 \, 36 \, 36 \, 36 \, 36 \, 36 \, 36 \, 36 \, 36 \, 36 \, 36
\, 36 \, 36 \, 36 \, 36 \, 36 \, 36 \, 36 \, 36 \, 36 \, 36 \, 36 \,
40 \, 40 \, 40 \, 40 \, 40 \, 40 \, 40 \, 40 \, 40 \, 40 \, 40 \, 40
\, 40 \, 40 \, 40 \, 40 \, 40 \, 40 \, 40 \, 40 \, 40 \, 40 \, 40 \,
40 \, 40 \, 40 \, 40 \, 40 \, 40 \, 40 \, 40 \, 40 \, 36 \, 36 \, 36
\, 36 \, 36 \, 36 \, 36 \, 36 \, 36 \, 36 \, 36 \, 36 \, 36 \, 36 \,
36 \, 36 \, 36 \, 36 \, 36 \, 36 \, 36 \, 36 \, 36 \, 36 \, 36 \, 36
\, 36 \, 36 \, 36 \, 36 \, 36 \, 36 \, 40 \, 40 \, 40 \, 40 \, 40 \,
40 \, 40 \, 40 \, 40 \, 40 \, 40 \, 40 \, 40 \, 40 \, 40 \, 40 \, 40
\, 40 \, 40 \, 40 \, 40 \, 40 \, 40 \, 40 \, 40 \, 40 \, 40 \, 40 \,
40 \, 40 \, 40 \, 40 \,;
#X obj 461 293 + 12.01;
#X floatatom 350 105 5 0 1 0 - - -;
#X obj 259 411 *~;
#X connect 0 0 18 0;
#X connect 0 0 14 0;
#X connect 2 0 6 0;
#X connect 2 1 3 0;
#X connect 3 0 4 0;
#X connect 4 0 5 0;
#X connect 5 0 19 0;
#X connect 6 0 3 0;
#X connect 7 0 16 0;
#X connect 7 0 9 0;
#X connect 8 0 12 0;
#X connect 8 1 15 0;
#X connect 9 0 13 0;
#X connect 11 0 2 0;
#X connect 14 0 11 0;
#X connect 15 0 12 1;
#X connect 16 0 17 0;
#X connect 17 0 8 0;
#X connect 18 0 19 1;
#X connect 19 0 1 0;
#X restore 156 157 pd bassmelody;
#N canvas 221 173 1059 627 percussionmelody 1;
#X obj 101 34 inlet;
#X obj 86 584 outlet~;
#X obj 101 185 tabread percussion;
#X obj 101 256 sel 1;
#X floatatom 101 152 5 0 0 0 - - -;
#X floatatom 101 220 5 0 0 0 - - -;
#X obj 86 530 *~;
#X msg 24 399 \$1 \, 20 160;
#X floatatom 152 47 5 0 0 0 - - -;
#X obj 101 304 bng 15 250 50 0 empty empty empty 17 7 0 10 -262144
-1 -1;
#X msg 101 393 0 \, 1 10;
#X msg 178 416 1 \, 0 150;
#X obj 101 486 line~;
#X obj 178 383 delay 10;
#X obj 24 444 line~;
#X obj 24 482 osc~ 60;
#X obj 921 61 tgl 15 0 empty empty empty 17 7 0 10 -262144 -1 -1 0
1;
#X obj 429 59 tgl 15 0 empty empty empty 17 7 0 10 -262144 -1 -1 0
1;
#X obj 250 59 tgl 15 0 empty empty empty 17 7 0 10 -262144 -1 -1 0
1;
#X obj 300 59 tgl 15 0 empty empty empty 17 7 0 10 -262144 -1 -1 0
1;
#X obj 347 59 tgl 15 0 empty empty empty 17 7 0 10 -262144 -1 -1 0
1;
#X obj 386 58 tgl 15 0 empty empty empty 17 7 0 10 -262144 -1 -1 0
1;
#X obj 471 59 tgl 15 0 empty empty empty 17 7 0 10 -262144 -1 -1 0
1;
#X obj 517 59 tgl 15 0 empty empty empty 17 7 0 10 -262144 -1 -1 0
1;
#X obj 561 59 tgl 15 0 empty empty empty 17 7 0 10 -262144 -1 -1 0
1;
#X obj 603 59 tgl 15 0 empty empty empty 17 7 0 10 -262144 -1 -1 0
1;
#X obj 647 58 tgl 15 0 empty empty empty 17 7 0 10 -262144 -1 -1 0
1;
#X obj 692 59 tgl 15 0 empty empty empty 17 7 0 10 -262144 -1 -1 0
1;
#X obj 737 59 tgl 15 0 empty empty empty 17 7 0 10 -262144 -1 -1 0
1;
#X obj 783 59 tgl 15 0 empty empty empty 17 7 0 10 -262144 -1 -1 0
1;
#X obj 827 59 tgl 15 0 empty empty empty 17 7 0 10 -262144 -1 -1 0
1;
#X obj 876 60 tgl 15 0 empty empty empty 17 7 0 10 -262144 -1 -1 0
1;
#X msg 517 104 \$1 7;
#X msg 603 104 \$1 9;
#X msg 561 104 \$1 8;
#X msg 471 104 \$1 6;
#X msg 250 104 \$1 1;
#X msg 300 104 \$1 2;
#X msg 347 104 \$1 3;
#X msg 386 103 \$1 4;
#X msg 429 104 \$1 5;
#X msg 647 103 \$1 10;
#X msg 692 104 \$1 11;
#X msg 737 104 \$1 12;
#X msg 783 104 \$1 13;
#X msg 827 105 \$1 14;
#X msg 876 106 \$1 15;
#X obj 468 257 unpack 0 0;
#X floatatom 579 294 5 0 0 0 - - -;
#X floatatom 468 294 5 0 0 0 - - -;
#X obj 468 332 tabwrite percussion;
#N canvas 0 22 450 300 (subpatch) 0;
#X array percussion 15 float 1;
#A 0 1 1 0 0 0 0 0 0 0 0 0 0 0 0 0;
#X coords 0 1 14 0 200 20 1;
#X restore 324 389 graph;
#X obj 101 84 metro 100;
#X obj 101 119 counter 0 0 16;
#X msg 921 106 \$1 16;
#X msg 24 352 80;
#X connect 0 0 52 0;
#X connect 2 0 5 0;
#X connect 3 0 9 0;
#X connect 4 0 2 0;
#X connect 5 0 3 0;
#X connect 6 0 1 0;
#X connect 7 0 14 0;
#X connect 8 0 52 1;
#X connect 9 0 10 0;
#X connect 9 0 13 0;
#X connect 9 0 55 0;
#X connect 10 0 12 0;
#X connect 11 0 12 0;
#X connect 12 0 6 1;
#X connect 13 0 11 0;
#X connect 14 0 15 0;
#X connect 15 0 6 0;
#X connect 16 0 54 0;
#X connect 17 0 40 0;
#X connect 18 0 36 0;
#X connect 19 0 37 0;
#X connect 20 0 38 0;
#X connect 21 0 39 0;
#X connect 22 0 35 0;
#X connect 23 0 32 0;
#X connect 24 0 34 0;
#X connect 25 0 33 0;
#X connect 26 0 41 0;
#X connect 27 0 42 0;
#X connect 28 0 43 0;
#X connect 29 0 44 0;
#X connect 30 0 45 0;
#X connect 31 0 46 0;
#X connect 32 0 47 0;
#X connect 33 0 47 0;
#X connect 34 0 47 0;
#X connect 35 0 47 0;
#X connect 36 0 47 0;
#X connect 37 0 47 0;
#X connect 38 0 47 0;
#X connect 39 0 47 0;
#X connect 40 0 47 0;
#X connect 41 0 47 0;
#X connect 42 0 47 0;
#X connect 43 0 47 0;
#X connect 44 0 47 0;
#X connect 45 0 47 0;
#X connect 46 0 47 0;
#X connect 47 0 49 0;
#X connect 47 1 48 0;
#X connect 48 0 50 1;
#X connect 49 0 50 0;
#X connect 52 0 53 0;
#X connect 53 0 4 0;
#X connect 54 0 47 0;
#X connect 55 0 7 0;
#X restore 255 157 pd percussionmelody;
#X obj 156 41 inlet;
#X obj 156 258 outlet~;
#X connect 0 0 4 0;
#X connect 1 0 4 0;
#X connect 3 0 0 0;
#X connect 3 0 1 0;
#X connect 3 0 2 0;
#X restore 249 111 pd BGM;
#X floatatom 150 -118 5 0 0 0 - - -;
#X obj 130 -155 fiddle~ 2048 3 20 0;
#X obj 235 35 / 70;
#X obj 53 -9 tgl 15 0 empty empty empty 17 7 0 10 -262144 -1 -1 1 1
;
#X obj 321 37 == 0;
#X obj 275 -71 print;
#X obj 196 -84 - 80;
#X msg 292 -126 80;
#X msg 252 -128 40;
#X connect 0 0 19 0;
#X connect 0 1 19 0;
#X connect 1 0 4 0;
#X connect 3 0 1 0;
#X connect 4 0 2 0;
#X connect 4 0 2 1;
#X connect 6 0 7 0;
#X connect 7 0 5 0;
#X connect 9 0 10 0;
#X connect 10 0 8 0;
#X connect 11 0 24 0;
#X connect 12 0 1 1;
#X connect 13 0 14 0;
#X connect 13 1 20 0;
#X connect 13 1 22 0;
#X connect 14 0 16 0;
#X connect 14 0 17 0;
#X connect 16 0 12 0;
#X connect 19 2 18 0;
#X connect 19 3 11 0;
#X connect 20 0 12 0;
#X connect 21 0 3 0;
#X connect 22 0 17 0;
#X connect 24 0 13 0;
#X connect 25 0 24 1;
#X connect 26 0 24 1;
