#N canvas 47 22 853 756 10;
#X obj 291 441 mtof;
#X obj 291 478 osc~;
#X obj 291 513 hip~ 5;
#X obj 347 442 mtof;
#X obj 347 479 osc~;
#X obj 347 514 hip~ 5;
#X obj 593 72 adc~;
#X obj 158 308 dac~;
#X obj 402 443 mtof~;
#X obj 402 513 hip~ 20000;
#X obj 402 483 phasor~;
#X msg 402 403 674;
#X obj 368 612 dac~;
#X obj 332 91 delwrite~ abc 100000;
#X obj 307 110 delread~ abc 100000;
#X obj 402 315 spigot;
#X obj 435 290 tgl 15 0 empty empty empty 17 7 0 10 -262144 -1 -1 0
1;
#X obj 403 252 tgl 15 0 empty empty empty 17 7 0 10 -262144 -1 -1 0
1;
#X obj 402 349 metro 2000;
#X obj 485 443 mtof~;
#X msg 485 402 98;
#X obj 485 482 phasor~;
#X obj 485 515 hip~ 5;
#X obj 549 444 mtof~;
#X obj 549 483 phasor~;
#X obj 549 516 hip~ 5;
#X msg 549 402 101;
#X obj 605 445 mtof~;
#X obj 605 484 phasor~;
#X obj 605 517 hip~ 5;
#X msg 605 403 91;
#X msg 291 403 106;
#X msg 347 404 107;
#X connect 0 0 1 0;
#X connect 1 0 2 0;
#X connect 2 0 12 0;
#X connect 3 0 4 0;
#X connect 4 0 5 0;
#X connect 5 0 12 1;
#X connect 8 0 10 0;
#X connect 9 0 12 1;
#X connect 9 0 12 0;
#X connect 10 0 9 0;
#X connect 11 0 8 0;
#X connect 15 0 18 0;
#X connect 16 0 15 1;
#X connect 17 0 15 0;
#X connect 18 0 11 0;
#X connect 18 0 32 0;
#X connect 18 0 31 0;
#X connect 18 0 20 0;
#X connect 18 0 26 0;
#X connect 18 0 30 0;
#X connect 19 0 21 0;
#X connect 20 0 19 0;
#X connect 21 0 22 0;
#X connect 22 0 12 1;
#X connect 23 0 24 0;
#X connect 24 0 25 0;
#X connect 25 0 12 0;
#X connect 26 0 23 0;
#X connect 27 0 28 0;
#X connect 28 0 29 0;
#X connect 29 0 12 1;
#X connect 30 0 27 0;
#X connect 31 0 0 0;
#X connect 32 0 3 0;
